<svg xmlns="http://www.w3.org/2000/svg" viewBox="0 0 64 64">
  <defs>
    <linearGradient id="bg" x1="0" y1="0" x2="1" y2="1">
      <stop offset="0" stop-color="#0ea5e9"/>
      <stop offset="1" stop-color="#22c55e"/>
    </linearGradient>
  </defs>
  <rect x="4" y="4" width="56" height="56" rx="14" fill="url(#bg)"/>
  <path d="M32 17a6 6 0 1 1 0 12a6 6 0 0 1 0-12zM20 27a5 5 0 1 1 0 10a5 5 0 0 1 0-10zM44 27a5 5 0 1 1 0 10a5 5 0 0 1 0-10z" fill="#fff" opacity=".98"/>
  <path d="M32 29v18M20 37v10M44 37v10M20 37h24M32 47h12M32 47H20" stroke="#fff" stroke-width="3" stroke-linecap="round" fill="none"/>
</svg>
